<mxfile host="Electron" modified="2023-06-04T09:50:44.726Z" agent="Mozilla/5.0 (Windows NT 10.0; Win64; x64) AppleWebKit/537.36 (KHTML, like Gecko) draw.io/21.2.8 Chrome/112.0.5615.165 Electron/24.2.0 Safari/537.36" etag="-91qFTqbnat3S2_TfBlO" version="21.2.8" type="device">
  <diagram name="Page-1" id="5d7acffa-a066-3a61-03fe-96351882024d">
    <mxGraphModel dx="1036" dy="614" grid="1" gridSize="10" guides="1" tooltips="1" connect="1" arrows="1" fold="1" page="1" pageScale="1" pageWidth="1100" pageHeight="850" background="#ffffff" math="0" shadow="0">
      <root>
        <mxCell id="0" />
        <mxCell id="1" parent="0" />
        <mxCell id="QZWRVkWgOH4tQiXEA4vU-1" value="&lt;font style=&quot;font-size: 16px;&quot;&gt;报名记录&lt;/font&gt;" style="html=1;rounded=0;shadow=0;comic=0;labelBackgroundColor=none;strokeWidth=2;fontFamily=Verdana;fontSize=12;align=center;shape=mxgraph.ios7ui.horLines;" vertex="1" parent="1">
          <mxGeometry x="370" y="320" width="135" height="50" as="geometry" />
        </mxCell>
        <mxCell id="QZWRVkWgOH4tQiXEA4vU-3" value="" style="endArrow=classic;html=1;rounded=0;exitX=0;exitY=0.5;exitDx=0;exitDy=0;" edge="1" parent="1" source="QZWRVkWgOH4tQiXEA4vU-39">
          <mxGeometry width="50" height="50" relative="1" as="geometry">
            <mxPoint x="210" y="200" as="sourcePoint" />
            <mxPoint x="330" y="170" as="targetPoint" />
          </mxGeometry>
        </mxCell>
        <mxCell id="QZWRVkWgOH4tQiXEA4vU-4" value="&lt;span style=&quot;font-size: 16px;&quot;&gt;考试试卷&lt;br&gt;&lt;/span&gt;" style="edgeLabel;html=1;align=center;verticalAlign=middle;resizable=0;points=[];" vertex="1" connectable="0" parent="QZWRVkWgOH4tQiXEA4vU-3">
          <mxGeometry x="0.2482" y="-2" relative="1" as="geometry">
            <mxPoint x="-17" y="-2" as="offset" />
          </mxGeometry>
        </mxCell>
        <mxCell id="QZWRVkWgOH4tQiXEA4vU-36" value="获取报考科目&lt;br style=&quot;font-size: 16px;&quot;&gt;2.1" style="ellipse;whiteSpace=wrap;html=1;fontSize=16;" vertex="1" parent="1">
          <mxGeometry x="400" y="200" width="120" height="80" as="geometry" />
        </mxCell>
        <mxCell id="QZWRVkWgOH4tQiXEA4vU-38" value="&lt;font style=&quot;font-size: 16px;&quot;&gt;试卷记录&lt;/font&gt;" style="html=1;rounded=0;shadow=0;comic=0;labelBackgroundColor=none;strokeWidth=2;fontFamily=Verdana;fontSize=12;align=center;shape=mxgraph.ios7ui.horLines;" vertex="1" parent="1">
          <mxGeometry x="610" y="320" width="135" height="50" as="geometry" />
        </mxCell>
        <mxCell id="QZWRVkWgOH4tQiXEA4vU-39" value="发送考卷&lt;br style=&quot;font-size: 16px;&quot;&gt;2.2" style="ellipse;whiteSpace=wrap;html=1;fontSize=16;" vertex="1" parent="1">
          <mxGeometry x="590" y="130" width="120" height="80" as="geometry" />
        </mxCell>
        <mxCell id="QZWRVkWgOH4tQiXEA4vU-40" value="" style="endArrow=classic;html=1;rounded=0;exitX=0.406;exitY=-0.052;exitDx=0;exitDy=0;exitPerimeter=0;entryX=0.5;entryY=1;entryDx=0;entryDy=0;" edge="1" parent="1" source="QZWRVkWgOH4tQiXEA4vU-1" target="QZWRVkWgOH4tQiXEA4vU-36">
          <mxGeometry width="50" height="50" relative="1" as="geometry">
            <mxPoint x="490" y="320" as="sourcePoint" />
            <mxPoint x="540" y="270" as="targetPoint" />
          </mxGeometry>
        </mxCell>
        <mxCell id="QZWRVkWgOH4tQiXEA4vU-41" value="" style="endArrow=classic;html=1;rounded=0;exitX=0.98;exitY=0.598;exitDx=0;exitDy=0;exitPerimeter=0;" edge="1" parent="1" source="QZWRVkWgOH4tQiXEA4vU-36" target="QZWRVkWgOH4tQiXEA4vU-39">
          <mxGeometry width="50" height="50" relative="1" as="geometry">
            <mxPoint x="570" y="290" as="sourcePoint" />
            <mxPoint x="620" y="240" as="targetPoint" />
          </mxGeometry>
        </mxCell>
        <mxCell id="QZWRVkWgOH4tQiXEA4vU-42" value="试卷编号" style="edgeLabel;html=1;align=center;verticalAlign=middle;resizable=0;points=[];fontSize=16;" vertex="1" connectable="0" parent="QZWRVkWgOH4tQiXEA4vU-41">
          <mxGeometry x="0.1323" y="-1" relative="1" as="geometry">
            <mxPoint as="offset" />
          </mxGeometry>
        </mxCell>
        <mxCell id="QZWRVkWgOH4tQiXEA4vU-43" value="" style="endArrow=classic;html=1;rounded=0;exitX=0.513;exitY=-0.068;exitDx=0;exitDy=0;exitPerimeter=0;entryX=0.5;entryY=1;entryDx=0;entryDy=0;" edge="1" parent="1" source="QZWRVkWgOH4tQiXEA4vU-38" target="QZWRVkWgOH4tQiXEA4vU-39">
          <mxGeometry width="50" height="50" relative="1" as="geometry">
            <mxPoint x="770" y="270" as="sourcePoint" />
            <mxPoint x="820" y="220" as="targetPoint" />
          </mxGeometry>
        </mxCell>
        <mxCell id="QZWRVkWgOH4tQiXEA4vU-44" value="&lt;font style=&quot;font-size: 16px;&quot;&gt;试卷内容&lt;/font&gt;" style="edgeLabel;html=1;align=center;verticalAlign=middle;resizable=0;points=[];" vertex="1" connectable="0" parent="QZWRVkWgOH4tQiXEA4vU-43">
          <mxGeometry x="0.2754" y="-1" relative="1" as="geometry">
            <mxPoint as="offset" />
          </mxGeometry>
        </mxCell>
      </root>
    </mxGraphModel>
  </diagram>
</mxfile>
